<mxfile host="app.diagrams.net" agent="Mozilla/5.0 (Macintosh; Intel Mac OS X 10_15_7) AppleWebKit/537.36 (KHTML, like Gecko) Chrome/131.0.0.0 Safari/537.36" version="26.0.14">
  <diagram name="Page-1" id="8yIn8AQ5te7b31H39PjS">
    <mxGraphModel dx="839" dy="854" grid="1" gridSize="10" guides="1" tooltips="1" connect="1" arrows="1" fold="1" page="1" pageScale="1" pageWidth="1600" pageHeight="900" math="0" shadow="0">
      <root>
        <mxCell id="0" />
        <mxCell id="1" parent="0" />
        <mxCell id="c37E_DeCiUdrQiTM1pNY-3" value="&lt;u&gt;name&lt;/u&gt;" style="ellipse;whiteSpace=wrap;html=1;align=center;" vertex="1" parent="1">
          <mxGeometry x="360" y="350" width="100" height="40" as="geometry" />
        </mxCell>
        <mxCell id="c37E_DeCiUdrQiTM1pNY-8" style="rounded=0;orthogonalLoop=1;jettySize=auto;html=1;endArrow=none;startFill=0;" edge="1" parent="1" source="c37E_DeCiUdrQiTM1pNY-4" target="c37E_DeCiUdrQiTM1pNY-3">
          <mxGeometry relative="1" as="geometry" />
        </mxCell>
        <mxCell id="c37E_DeCiUdrQiTM1pNY-9" style="rounded=0;orthogonalLoop=1;jettySize=auto;html=1;endArrow=none;startFill=0;" edge="1" parent="1" source="c37E_DeCiUdrQiTM1pNY-4" target="c37E_DeCiUdrQiTM1pNY-5">
          <mxGeometry relative="1" as="geometry" />
        </mxCell>
        <mxCell id="c37E_DeCiUdrQiTM1pNY-10" style="rounded=0;orthogonalLoop=1;jettySize=auto;html=1;endArrow=none;startFill=0;" edge="1" parent="1" source="c37E_DeCiUdrQiTM1pNY-4" target="c37E_DeCiUdrQiTM1pNY-6">
          <mxGeometry relative="1" as="geometry" />
        </mxCell>
        <mxCell id="c37E_DeCiUdrQiTM1pNY-43" style="edgeStyle=orthogonalEdgeStyle;rounded=0;orthogonalLoop=1;jettySize=auto;html=1;endArrow=none;startFill=0;" edge="1" parent="1" source="c37E_DeCiUdrQiTM1pNY-4" target="c37E_DeCiUdrQiTM1pNY-42">
          <mxGeometry relative="1" as="geometry" />
        </mxCell>
        <mxCell id="c37E_DeCiUdrQiTM1pNY-54" value="&lt;font style=&quot;font-size: 25px;&quot;&gt;M&lt;/font&gt;" style="edgeLabel;html=1;align=center;verticalAlign=middle;resizable=0;points=[];" vertex="1" connectable="0" parent="c37E_DeCiUdrQiTM1pNY-43">
          <mxGeometry x="-0.0078" y="-1" relative="1" as="geometry">
            <mxPoint as="offset" />
          </mxGeometry>
        </mxCell>
        <mxCell id="c37E_DeCiUdrQiTM1pNY-4" value="RESTAURANT" style="whiteSpace=wrap;html=1;align=center;" vertex="1" parent="1">
          <mxGeometry x="480" y="270" width="100" height="40" as="geometry" />
        </mxCell>
        <mxCell id="c37E_DeCiUdrQiTM1pNY-5" value="address" style="ellipse;whiteSpace=wrap;html=1;align=center;" vertex="1" parent="1">
          <mxGeometry x="360" y="270" width="100" height="40" as="geometry" />
        </mxCell>
        <mxCell id="c37E_DeCiUdrQiTM1pNY-6" value="rating" style="ellipse;whiteSpace=wrap;html=1;align=center;" vertex="1" parent="1">
          <mxGeometry x="360" y="180" width="100" height="40" as="geometry" />
        </mxCell>
        <mxCell id="c37E_DeCiUdrQiTM1pNY-17" style="rounded=0;orthogonalLoop=1;jettySize=auto;html=1;endArrow=none;startFill=0;" edge="1" parent="1" source="c37E_DeCiUdrQiTM1pNY-11" target="c37E_DeCiUdrQiTM1pNY-16">
          <mxGeometry relative="1" as="geometry" />
        </mxCell>
        <mxCell id="c37E_DeCiUdrQiTM1pNY-18" style="rounded=0;orthogonalLoop=1;jettySize=auto;html=1;endArrow=none;startFill=0;" edge="1" parent="1" source="c37E_DeCiUdrQiTM1pNY-11" target="c37E_DeCiUdrQiTM1pNY-12">
          <mxGeometry relative="1" as="geometry" />
        </mxCell>
        <mxCell id="c37E_DeCiUdrQiTM1pNY-19" style="rounded=0;orthogonalLoop=1;jettySize=auto;html=1;endArrow=none;startFill=0;" edge="1" parent="1" source="c37E_DeCiUdrQiTM1pNY-11" target="c37E_DeCiUdrQiTM1pNY-14">
          <mxGeometry relative="1" as="geometry" />
        </mxCell>
        <mxCell id="c37E_DeCiUdrQiTM1pNY-20" style="rounded=0;orthogonalLoop=1;jettySize=auto;html=1;endArrow=none;startFill=0;" edge="1" parent="1" source="c37E_DeCiUdrQiTM1pNY-11" target="c37E_DeCiUdrQiTM1pNY-13">
          <mxGeometry relative="1" as="geometry" />
        </mxCell>
        <mxCell id="c37E_DeCiUdrQiTM1pNY-22" style="rounded=0;orthogonalLoop=1;jettySize=auto;html=1;endArrow=none;startFill=0;" edge="1" parent="1" source="c37E_DeCiUdrQiTM1pNY-11" target="c37E_DeCiUdrQiTM1pNY-15">
          <mxGeometry relative="1" as="geometry" />
        </mxCell>
        <mxCell id="c37E_DeCiUdrQiTM1pNY-24" style="rounded=0;orthogonalLoop=1;jettySize=auto;html=1;endArrow=none;startFill=0;" edge="1" parent="1" source="c37E_DeCiUdrQiTM1pNY-11" target="c37E_DeCiUdrQiTM1pNY-23">
          <mxGeometry relative="1" as="geometry" />
        </mxCell>
        <mxCell id="c37E_DeCiUdrQiTM1pNY-39" style="rounded=0;orthogonalLoop=1;jettySize=auto;html=1;endArrow=none;startFill=0;" edge="1" parent="1" source="c37E_DeCiUdrQiTM1pNY-11" target="c37E_DeCiUdrQiTM1pNY-38">
          <mxGeometry relative="1" as="geometry" />
        </mxCell>
        <mxCell id="c37E_DeCiUdrQiTM1pNY-50" value="&lt;font style=&quot;font-size: 25px;&quot;&gt;N&lt;/font&gt;" style="edgeLabel;html=1;align=center;verticalAlign=middle;resizable=0;points=[];" vertex="1" connectable="0" parent="c37E_DeCiUdrQiTM1pNY-39">
          <mxGeometry x="0.0582" relative="1" as="geometry">
            <mxPoint x="1" as="offset" />
          </mxGeometry>
        </mxCell>
        <mxCell id="c37E_DeCiUdrQiTM1pNY-46" style="rounded=0;orthogonalLoop=1;jettySize=auto;html=1;endArrow=none;startFill=0;" edge="1" parent="1" source="c37E_DeCiUdrQiTM1pNY-11" target="c37E_DeCiUdrQiTM1pNY-45">
          <mxGeometry relative="1" as="geometry" />
        </mxCell>
        <mxCell id="c37E_DeCiUdrQiTM1pNY-53" value="&lt;font style=&quot;font-size: 25px;&quot;&gt;M&lt;/font&gt;" style="edgeLabel;html=1;align=center;verticalAlign=middle;resizable=0;points=[];" vertex="1" connectable="0" parent="c37E_DeCiUdrQiTM1pNY-46">
          <mxGeometry x="0.0055" relative="1" as="geometry">
            <mxPoint as="offset" />
          </mxGeometry>
        </mxCell>
        <mxCell id="c37E_DeCiUdrQiTM1pNY-11" value="Customer" style="whiteSpace=wrap;html=1;align=center;" vertex="1" parent="1">
          <mxGeometry x="870" y="570" width="100" height="40" as="geometry" />
        </mxCell>
        <mxCell id="c37E_DeCiUdrQiTM1pNY-12" value="name" style="ellipse;whiteSpace=wrap;html=1;align=center;" vertex="1" parent="1">
          <mxGeometry x="690" y="690" width="100" height="40" as="geometry" />
        </mxCell>
        <mxCell id="c37E_DeCiUdrQiTM1pNY-13" value="age" style="ellipse;whiteSpace=wrap;html=1;align=center;" vertex="1" parent="1">
          <mxGeometry x="940" y="690" width="100" height="40" as="geometry" />
        </mxCell>
        <mxCell id="c37E_DeCiUdrQiTM1pNY-14" value="gender" style="ellipse;whiteSpace=wrap;html=1;align=center;" vertex="1" parent="1">
          <mxGeometry x="810" y="690" width="100" height="40" as="geometry" />
        </mxCell>
        <mxCell id="c37E_DeCiUdrQiTM1pNY-15" value="birthday" style="ellipse;whiteSpace=wrap;html=1;align=center;" vertex="1" parent="1">
          <mxGeometry x="1060" y="690" width="100" height="40" as="geometry" />
        </mxCell>
        <mxCell id="c37E_DeCiUdrQiTM1pNY-16" value="&lt;u&gt;loginID&lt;/u&gt;" style="ellipse;whiteSpace=wrap;html=1;align=center;" vertex="1" parent="1">
          <mxGeometry x="570" y="690" width="100" height="40" as="geometry" />
        </mxCell>
        <mxCell id="c37E_DeCiUdrQiTM1pNY-23" value="review" style="ellipse;shape=doubleEllipse;margin=3;whiteSpace=wrap;html=1;align=center;" vertex="1" parent="1">
          <mxGeometry x="1180" y="690" width="100" height="40" as="geometry" />
        </mxCell>
        <mxCell id="c37E_DeCiUdrQiTM1pNY-29" style="edgeStyle=orthogonalEdgeStyle;rounded=0;orthogonalLoop=1;jettySize=auto;html=1;endArrow=none;startFill=0;" edge="1" parent="1" source="c37E_DeCiUdrQiTM1pNY-25" target="c37E_DeCiUdrQiTM1pNY-28">
          <mxGeometry relative="1" as="geometry" />
        </mxCell>
        <mxCell id="c37E_DeCiUdrQiTM1pNY-32" style="rounded=0;orthogonalLoop=1;jettySize=auto;html=1;endArrow=none;startFill=0;" edge="1" parent="1" source="c37E_DeCiUdrQiTM1pNY-25" target="c37E_DeCiUdrQiTM1pNY-30">
          <mxGeometry relative="1" as="geometry" />
        </mxCell>
        <mxCell id="c37E_DeCiUdrQiTM1pNY-34" style="rounded=0;orthogonalLoop=1;jettySize=auto;html=1;endArrow=none;startFill=0;" edge="1" parent="1" source="c37E_DeCiUdrQiTM1pNY-25" target="c37E_DeCiUdrQiTM1pNY-26">
          <mxGeometry relative="1" as="geometry" />
        </mxCell>
        <mxCell id="c37E_DeCiUdrQiTM1pNY-25" value="FoodItem" style="whiteSpace=wrap;html=1;align=center;" vertex="1" parent="1">
          <mxGeometry x="1230" y="270" width="100" height="40" as="geometry" />
        </mxCell>
        <mxCell id="c37E_DeCiUdrQiTM1pNY-26" value="name" style="ellipse;whiteSpace=wrap;html=1;align=center;fontStyle=4" vertex="1" parent="1">
          <mxGeometry x="1390" y="150" width="100" height="40" as="geometry" />
        </mxCell>
        <mxCell id="c37E_DeCiUdrQiTM1pNY-28" value="description" style="ellipse;whiteSpace=wrap;html=1;align=center;" vertex="1" parent="1">
          <mxGeometry x="1390" y="270" width="100" height="40" as="geometry" />
        </mxCell>
        <mxCell id="c37E_DeCiUdrQiTM1pNY-30" value="vegan" style="ellipse;whiteSpace=wrap;html=1;align=center;" vertex="1" parent="1">
          <mxGeometry x="1390" y="380" width="100" height="40" as="geometry" />
        </mxCell>
        <mxCell id="c37E_DeCiUdrQiTM1pNY-40" style="rounded=0;orthogonalLoop=1;jettySize=auto;html=1;endArrow=none;startFill=0;" edge="1" parent="1" source="c37E_DeCiUdrQiTM1pNY-38" target="c37E_DeCiUdrQiTM1pNY-4">
          <mxGeometry relative="1" as="geometry">
            <Array as="points" />
          </mxGeometry>
        </mxCell>
        <mxCell id="c37E_DeCiUdrQiTM1pNY-51" value="&lt;font style=&quot;font-size: 25px;&quot;&gt;M&lt;/font&gt;" style="edgeLabel;html=1;align=center;verticalAlign=middle;resizable=0;points=[];" vertex="1" connectable="0" parent="c37E_DeCiUdrQiTM1pNY-40">
          <mxGeometry x="0.0956" y="-3" relative="1" as="geometry">
            <mxPoint as="offset" />
          </mxGeometry>
        </mxCell>
        <mxCell id="c37E_DeCiUdrQiTM1pNY-38" value="reviewed by" style="shape=rhombus;perimeter=rhombusPerimeter;whiteSpace=wrap;html=1;align=center;" vertex="1" parent="1">
          <mxGeometry x="620" y="450" width="120" height="60" as="geometry" />
        </mxCell>
        <mxCell id="c37E_DeCiUdrQiTM1pNY-44" style="edgeStyle=orthogonalEdgeStyle;rounded=0;orthogonalLoop=1;jettySize=auto;html=1;endArrow=none;startFill=0;" edge="1" parent="1" source="c37E_DeCiUdrQiTM1pNY-42" target="c37E_DeCiUdrQiTM1pNY-25">
          <mxGeometry relative="1" as="geometry" />
        </mxCell>
        <mxCell id="c37E_DeCiUdrQiTM1pNY-55" value="&lt;font style=&quot;font-size: 25px;&quot;&gt;N&lt;/font&gt;" style="edgeLabel;html=1;align=center;verticalAlign=middle;resizable=0;points=[];" vertex="1" connectable="0" parent="c37E_DeCiUdrQiTM1pNY-44">
          <mxGeometry x="0.0077" relative="1" as="geometry">
            <mxPoint as="offset" />
          </mxGeometry>
        </mxCell>
        <mxCell id="c37E_DeCiUdrQiTM1pNY-42" value="has" style="shape=rhombus;perimeter=rhombusPerimeter;whiteSpace=wrap;html=1;align=center;" vertex="1" parent="1">
          <mxGeometry x="850" y="260" width="120" height="60" as="geometry" />
        </mxCell>
        <mxCell id="c37E_DeCiUdrQiTM1pNY-47" style="rounded=0;orthogonalLoop=1;jettySize=auto;html=1;endArrow=none;startFill=0;" edge="1" parent="1" source="c37E_DeCiUdrQiTM1pNY-45" target="c37E_DeCiUdrQiTM1pNY-25">
          <mxGeometry relative="1" as="geometry">
            <Array as="points" />
          </mxGeometry>
        </mxCell>
        <mxCell id="c37E_DeCiUdrQiTM1pNY-52" value="&lt;font style=&quot;font-size: 25px;&quot;&gt;1&lt;/font&gt;" style="edgeLabel;html=1;align=center;verticalAlign=middle;resizable=0;points=[];" vertex="1" connectable="0" parent="c37E_DeCiUdrQiTM1pNY-47">
          <mxGeometry x="0.0081" y="-1" relative="1" as="geometry">
            <mxPoint as="offset" />
          </mxGeometry>
        </mxCell>
        <mxCell id="c37E_DeCiUdrQiTM1pNY-49" style="rounded=0;orthogonalLoop=1;jettySize=auto;html=1;endArrow=none;startFill=0;" edge="1" parent="1" source="c37E_DeCiUdrQiTM1pNY-45" target="c37E_DeCiUdrQiTM1pNY-48">
          <mxGeometry relative="1" as="geometry" />
        </mxCell>
        <mxCell id="c37E_DeCiUdrQiTM1pNY-45" value="favorite" style="shape=rhombus;perimeter=rhombusPerimeter;whiteSpace=wrap;html=1;align=center;" vertex="1" parent="1">
          <mxGeometry x="1100" y="460" width="120" height="60" as="geometry" />
        </mxCell>
        <mxCell id="c37E_DeCiUdrQiTM1pNY-48" value="favorite" style="ellipse;whiteSpace=wrap;html=1;align=center;" vertex="1" parent="1">
          <mxGeometry x="1290" y="560" width="100" height="40" as="geometry" />
        </mxCell>
      </root>
    </mxGraphModel>
  </diagram>
</mxfile>
